<?xml version="1.0" standalone="no"?>
<!DOCTYPE svg PUBLIC "-//W3C//DTD SVG 20010904//EN"
 "http://www.w3.org/TR/2001/REC-SVG-20010904/DTD/svg10.dtd">
<svg version="1.0" xmlns="http://www.w3.org/2000/svg"
 width="747.000000pt" height="747.000000pt" viewBox="0 0 747.000000 747.000000"
 preserveAspectRatio="xMidYMid meet">
<metadata>
Created by potrace 1.14, written by Peter Selinger 2001-2017
</metadata>
<g transform="translate(0.000000,747.000000) scale(0.100000,-0.100000)"
fill="#000000" stroke="none">
<path d="M7336 7448 c-3 -13 -7 -59 -10 -103 -3 -44 -13 -105 -22 -135 -22
-74 -29 -160 -14 -170 7 -4 13 -43 15 -101 2 -52 4 -94 5 -94 2 0 4 -144 6
-320 1 -176 5 -403 8 -505 3 -102 8 -361 12 -575 5 -342 4 -398 -10 -445 -20
-68 -21 -168 -1 -194 17 -22 20 -88 6 -115 -15 -27 -14 -168 2 -463 2 -27 -2
-49 -7 -51 -7 -2 -6 -10 3 -20 16 -20 12 -240 -6 -271 -8 -15 -7 -32 3 -68 12
-40 14 -148 10 -650 -2 -332 -4 -616 -4 -633 -1 -16 0 -154 1 -305 1 -151 0
-279 -3 -285 -2 -5 -5 -21 -6 -35 -1 -14 -7 -79 -13 -145 -7 -66 -12 -130 -12
-142 1 -12 -4 -34 -9 -48 -5 -14 -6 -25 -2 -25 4 0 14 -20 21 -45 16 -55 16
-513 0 -615 -10 -64 -28 -104 -30 -64 0 10 -3 13 -6 6 -2 -6 -9 -9 -14 -6 -16
9 -49 -26 -49 -52 0 -25 24 -54 46 -54 8 0 14 -7 14 -15 0 -7 7 -18 15 -23 10
-5 16 -24 17 -53 1 -73 -5 -129 -14 -123 -4 3 -8 -2 -8 -10 0 -9 4 -16 8 -16
13 0 7 -199 -6 -212 -8 -8 -10 -1 -7 28 4 29 3 33 -3 14 -7 -20 -10 -13 -16
40 -10 89 -72 396 -101 500 -43 150 -83 258 -126 338 -51 95 -159 226 -208
253 -20 11 -56 32 -81 47 -25 15 -74 40 -110 57 -36 16 -67 31 -69 32 -3 2 5
13 17 26 38 41 37 68 -5 108 -21 20 -49 42 -63 49 -29 16 -166 16 -220 0 -47
-13 -180 -13 -238 1 -34 9 -66 29 -116 73 -67 59 -71 61 -155 74 -47 7 -107
16 -133 19 -45 5 -51 9 -123 94 -98 116 -134 140 -219 145 -50 3 -76 11 -111
33 -25 16 -71 39 -103 52 -31 12 -75 34 -97 48 -54 34 -186 43 -246 16 -21
-10 -39 -23 -39 -30 0 -7 25 -45 55 -86 30 -41 58 -83 61 -94 8 -30 -12 -76
-30 -69 -10 4 -15 -5 -19 -33 -3 -21 -8 -50 -12 -64 -8 -30 10 -39 80 -39 67
0 111 -18 279 -113 88 -51 178 -101 199 -111 44 -23 63 -53 78 -128 6 -29 19
-76 29 -104 10 -28 32 -99 50 -158 17 -60 43 -134 56 -165 52 -115 54 -141 34
-333 -24 -230 -50 -550 -50 -618 0 -58 -9 -82 -32 -86 -7 -1 -38 -6 -68 -13
-72 -14 -147 -15 -187 -3 -18 6 -35 7 -37 3 -4 -6 -31 -7 -148 -2 -18 1 -87
99 -85 122 4 41 -16 169 -29 180 -8 7 -12 20 -8 31 11 34 -165 304 -192 294
-11 -4 -34 33 -34 56 0 6 -18 36 -41 65 -46 61 -45 83 3 83 51 0 59 -5 331
-218 45 -35 110 -72 127 -72 24 0 6 31 -51 86 -92 88 -91 87 -144 127 -26 20
-54 37 -61 37 -8 0 -13 5 -12 12 2 7 -10 15 -27 19 -24 5 -26 7 -7 8 17 1 20
4 12 14 -6 6 -21 25 -35 41 -20 25 -27 28 -47 20 -27 -12 -90 -10 -146 6 -66
17 -109 115 -62 140 12 6 78 15 148 21 171 13 233 23 209 34 -15 6 -16 10 -5
16 23 15 -11 29 -72 29 -31 0 -80 6 -110 14 -30 7 -76 17 -102 20 -53 8 -50 2
-63 128 -6 56 -6 57 22 65 82 22 361 1 442 -33 19 -8 79 -62 134 -119 56 -58
106 -105 114 -105 22 0 26 47 8 116 -15 61 -25 88 -59 164 -15 33 -87 110
-103 110 -11 0 -70 27 -135 61 -14 7 -16 5 -11 -9 3 -9 -5 -3 -18 13 -55 70
-87 83 -237 95 -86 6 -95 9 -125 38 -38 37 -47 39 -47 12 0 -13 -7 -20 -18
-20 -10 0 -23 -5 -29 -11 -9 -9 -13 -2 -18 27 -10 61 -13 66 -35 59 -11 -4
-20 -2 -20 4 0 6 -3 10 -7 10 -24 -4 -53 2 -53 11 0 15 -28 48 -110 128 -86
85 -177 136 -334 187 -55 18 -102 38 -104 45 -3 9 2 11 16 8 20 -6 20 -5 3 26
-14 23 -15 34 -7 42 7 6 11 38 10 74 -1 49 -5 67 -20 79 -14 12 -18 27 -16 56
1 22 4 51 4 65 1 14 11 32 22 41 21 18 30 49 14 49 -6 0 1 9 15 20 14 11 38
20 53 20 54 0 189 44 246 80 32 20 55 40 51 43 -3 4 -13 1 -22 -6 -9 -8 -24
-17 -35 -21 -15 -5 -17 -2 -13 14 3 11 2 22 -3 25 -4 3 -10 -5 -13 -17 -4 -12
-9 -19 -13 -15 -4 4 -12 3 -18 -2 -18 -15 -71 -18 -69 -4 2 7 -4 10 -12 7 -22
-9 -87 5 -80 17 4 5 -1 9 -9 9 -15 0 -20 18 -19 58 1 7 -16 23 -36 36 -20 13
-42 31 -50 40 -15 18 -33 12 -24 -9 4 -11 -2 -15 -21 -15 -17 0 -26 5 -26 15
0 9 -12 18 -29 21 -18 4 -34 16 -42 33 -7 14 -21 37 -30 51 -17 25 -16 26 7
49 17 17 35 23 68 23 25 0 49 -3 54 -6 12 -7 72 13 72 24 0 5 -4 12 -10 15 -5
3 -10 18 -10 33 -1 15 -10 38 -21 51 -17 21 -24 23 -39 13 -14 -9 -19 -8 -24
3 -2 7 -17 15 -32 17 -15 2 -30 9 -32 17 -3 8 0 11 6 8 5 -4 15 0 22 8 14 17
11 17 -47 6 -24 -5 -43 -5 -43 0 0 5 -6 6 -12 4 -7 -2 -37 -6 -65 -9 -40 -3
-53 -1 -53 9 0 8 -12 15 -27 17 -20 2 -27 8 -25 21 2 12 -4 17 -20 17 -21 0
-21 1 7 19 28 17 33 17 68 3 26 -10 56 -13 92 -9 34 3 57 1 61 -5 4 -7 10 -4
16 6 5 9 14 14 20 10 5 -3 21 0 35 7 19 10 28 11 44 1 27 -17 169 -28 169 -13
0 6 3 10 8 10 17 -3 71 14 67 22 -3 4 -1 10 5 14 5 3 10 -1 10 -9 0 -17 15
-22 24 -8 5 8 66 23 148 37 30 5 37 3 32 -9 -7 -18 11 -29 36 -21 24 8 27 50
5 79 -8 11 -15 14 -15 8 0 -7 -7 -12 -15 -12 -8 0 -15 -6 -15 -12 0 -10 -3 -9
-9 1 -6 9 -36 15 -97 17 -48 2 -111 12 -141 21 -43 14 -63 15 -104 6 -50 -10
-102 -1 -149 26 -8 4 -41 7 -72 5 -32 -2 -60 1 -63 6 -10 16 -45 11 -45 -5 0
-19 -70 -21 -88 -3 -13 13 -50 -2 -86 -34 -29 -26 -77 -34 -91 -15 -14 19 -55
12 -55 -9 0 -7 -12 -17 -27 -20 -45 -11 -90 -39 -85 -52 2 -7 -1 -12 -7 -12
-6 0 -11 5 -11 10 0 6 -11 10 -24 10 -19 0 -23 4 -19 20 4 13 -1 26 -12 34
-20 15 -12 38 10 29 8 -3 15 0 15 6 0 6 -7 11 -15 11 -8 0 -15 5 -15 10 0 6 7
10 16 10 11 0 14 6 9 21 -4 12 -3 24 1 28 20 14 34 50 23 57 -6 4 -15 0 -20
-7 -7 -11 -9 -11 -9 3 0 9 7 24 16 33 9 8 14 24 11 35 -3 11 1 24 9 31 9 8 14
33 14 80 0 57 -3 70 -19 79 -11 5 -27 7 -37 3 -12 -4 -15 -3 -10 5 5 8 2 10
-8 6 -12 -5 -16 1 -16 24 0 29 -1 30 -46 29 -27 0 -49 5 -54 13 -6 10 -9 9
-14 -1 -5 -11 -7 -11 -12 -1 -9 19 -24 14 -24 -8 0 -21 -16 -28 -22 -9 -2 6
-4 -40 -4 -103 0 -73 2 -97 6 -68 5 34 7 38 9 15 2 -45 12 -75 25 -75 8 0 9
-23 6 -74 -5 -70 -4 -73 15 -66 21 8 53 6 63 -4 3 -3 -4 -6 -16 -6 -16 0 -24
-9 -32 -40 -6 -21 -15 -42 -21 -46 -6 -3 -8 -19 -5 -35 3 -16 1 -29 -6 -31
-15 -5 14 -91 66 -193 27 -53 40 -94 41 -125 1 -25 3 -47 5 -50 2 -3 5 -16 6
-30 2 -14 7 -43 10 -65 3 -23 1 -56 -5 -75 -9 -31 -10 -27 -6 30 3 55 3 59 -5
25 -5 -22 -9 -70 -9 -106 -1 -37 -7 -82 -15 -100 -8 -19 -17 -59 -20 -89 -4
-30 -11 -56 -16 -58 -5 -2 -5 -13 0 -27 6 -15 6 -27 0 -30 -16 -10 -12 -35 5
-35 8 0 15 -4 15 -10 0 -5 -6 -10 -12 -10 -9 0 -10 -2 -2 -8 15 -10 28 -52 16
-52 -5 0 -12 10 -15 22 -4 12 -9 19 -13 15 -4 -4 -13 -2 -21 5 -11 9 -12 6 -3
-16 7 -20 7 -25 -1 -20 -7 4 -10 1 -7 -7 6 -17 -9 -49 -23 -49 -6 0 -17 -7
-26 -15 -8 -8 -19 -13 -24 -10 -5 4 -9 1 -9 -5 0 -8 11 -9 33 -5 25 6 29 4 20
-5 -17 -18 -5 -38 64 -108 34 -35 62 -66 62 -70 -3 -15 26 -72 37 -72 6 0 17
-11 24 -25 7 -13 17 -22 22 -19 4 3 11 -2 14 -10 3 -9 12 -16 20 -16 7 0 16
-11 20 -25 5 -19 11 -24 25 -20 19 6 28 -10 9 -17 -5 -2 -11 -13 -13 -25 -2
-13 -15 -36 -30 -51 -15 -15 -27 -33 -27 -40 0 -7 -4 -12 -9 -12 -5 0 -12 -11
-15 -25 -4 -14 -13 -25 -21 -25 -17 0 -78 26 -173 72 -158 77 -252 202 -252
336 0 40 2 43 23 37 15 -4 18 -3 9 3 -10 7 4 27 57 81 39 39 71 76 71 83 0 7
-21 9 -68 5 l-69 -7 -24 38 -25 37 -89 -3 c-107 -4 -218 -41 -376 -123 -78
-40 -354 -107 -372 -89 -5 4 -10 18 -11 31 -17 132 -29 154 -80 143 -17 -3
-43 -13 -58 -20 -26 -13 -31 -12 -83 22 -65 41 -102 42 -124 3 -13 -23 -12
-30 11 -80 14 -30 46 -84 72 -119 55 -74 55 -89 7 -166 l-31 -48 -197 -1
c-109 -1 -232 -7 -273 -14 -159 -24 -271 -80 -388 -194 -126 -122 -194 -250
-292 -546 -141 -424 -183 -658 -205 -1126 -4 -72 -9 -138 -11 -147 -5 -17 176
-18 3695 -18 l3701 0 0 3735 0 3735 -65 0 c-59 0 -65 -2 -69 -22z m-4321
-3777 c3 -5 1 -12 -5 -16 -5 -3 -10 1 -10 9 0 18 6 21 15 7z m-35 -36 c10 -12
10 -15 -4 -15 -9 0 -16 7 -16 15 0 8 2 15 4 15 2 0 9 -7 16 -15z m-13 -97 c-3
-8 -6 -5 -6 6 -1 11 2 17 5 13 3 -3 4 -12 1 -19z m1118 -748 c-3 -5 -12 -10
-18 -10 -7 0 -6 4 3 10 19 12 23 12 15 0z m-1185 -425 c0 -8 -4 -15 -10 -15
-5 0 -10 7 -10 15 0 8 5 15 10 15 6 0 10 -7 10 -15z m60 -75 c0 -5 -4 -10 -9
-10 -6 0 -13 5 -16 10 -3 6 1 10 9 10 9 0 16 -4 16 -10z m455 -50 c3 -5 1 -10
-4 -10 -6 0 -11 5 -11 10 0 6 2 10 4 10 3 0 8 -4 11 -10z m-235 -205 c0 -8 -4
-15 -9 -15 -5 0 -14 7 -21 15 -10 13 -9 15 9 15 12 0 21 -6 21 -15z m-294
-337 c9 -15 -27 -41 -40 -28 -6 6 -5 15 4 25 15 18 26 19 36 3z m21 -30 c-3
-7 -5 -2 -5 12 0 14 2 19 5 13 2 -7 2 -19 0 -25z m-37 -44 c0 -8 -9 -14 -20
-14 -19 0 -27 19 -14 33 10 9 34 -4 34 -19z m-3 -76 l44 -11 -6 -46 c-9 -71
-27 -131 -36 -125 -5 3 -9 0 -9 -5 0 -6 -9 -11 -19 -11 -11 0 -22 -4 -25 -9
-3 -4 -32 -11 -65 -15 -47 -5 -66 -3 -85 9 -27 18 -46 13 -46 -11 0 -8 -4 -12
-10 -9 -5 3 -7 0 -4 -9 3 -8 -4 -33 -15 -57 -11 -23 -24 -58 -27 -78 -4 -20
-10 -40 -14 -46 -4 -5 -13 -26 -19 -45 -6 -19 -27 -53 -46 -75 -19 -22 -35
-47 -35 -57 0 -64 53 -97 162 -102 63 -3 82 -8 138 -41 101 -58 99 -57 194
-25 47 16 96 36 108 44 31 22 34 21 63 -21 36 -53 32 -68 -22 -95 -27 -13 -73
-40 -104 -60 -30 -19 -66 -39 -80 -43 -13 -4 -35 -17 -49 -30 -44 -40 -78 -57
-99 -50 -22 7 -52 -6 -95 -42 -30 -25 -89 -53 -112 -53 -7 0 -23 20 -35 45
-21 41 -33 50 -66 46 -6 -1 -27 7 -46 18 -45 25 -48 18 -35 -91 12 -99 8 -118
-27 -118 -16 0 -25 -6 -25 -15 0 -8 -4 -15 -8 -15 -14 0 -62 -45 -62 -58 0 -7
-4 -12 -9 -12 -5 0 -13 -9 -16 -20 -3 -11 -13 -20 -21 -20 -8 0 -17 -6 -20
-14 -6 -16 -40 -27 -60 -19 -11 4 -14 20 -13 62 4 94 12 110 108 201 l89 85
16 95 c17 100 67 321 92 404 8 26 14 53 14 60 0 33 25 91 57 133 42 55 92 170
100 233 12 92 84 145 182 135 30 -3 74 -11 98 -17z m1507 -827 c18 -31 18 -35
2 -67 -9 -19 -36 -56 -59 -82 -24 -26 -58 -66 -76 -90 -18 -23 -59 -67 -90
-97 -31 -29 -83 -94 -116 -143 l-60 -90 -46 4 c-33 3 -50 0 -59 -11 -19 -23
-60 -18 -86 11 -28 29 -30 44 -9 44 10 0 15 10 15 30 0 18 -5 30 -13 30 -17 0
-72 -27 -109 -52 -28 -19 -63 -25 -53 -8 3 6 -1 10 -9 10 -9 0 -16 6 -16 14 0
9 7 12 18 9 25 -6 73 14 79 35 8 26 68 72 94 73 13 0 45 -3 71 -7 40 -6 48 -4
60 15 7 11 18 21 25 21 7 0 13 6 13 13 0 7 31 19 72 29 40 10 79 25 87 34 15
15 14 16 -6 11 -36 -8 -27 17 12 36 26 13 35 23 35 42 0 14 5 25 10 25 6 0 10
13 10 28 0 36 17 52 53 52 29 0 77 38 77 61 0 17 34 59 45 55 5 -1 18 -17 29
-35z m-1255 -202 c-6 -12 -9 -22 -7 -23 2 -2 26 -16 54 -31 49 -27 54 -28 91
-16 55 18 74 12 89 -29 27 -76 12 -130 -38 -130 -13 0 -28 -4 -34 -9 -5 -5
-27 -12 -50 -16 -37 -6 -44 -3 -96 40 -62 51 -73 73 -51 105 22 31 4 45 -44
34 -55 -12 -58 -11 -55 9 5 28 38 56 90 76 53 21 67 19 51 -10z"/>
<path d="M6843 6744 c-6 -17 -5 -42 1 -65 9 -34 7 -40 -21 -72 -23 -26 -29
-42 -26 -61 7 -35 36 -50 64 -35 19 10 21 17 15 64 -3 31 -2 56 4 60 5 3 7 12
4 19 -3 8 -1 17 5 21 13 8 15 85 2 85 -5 0 -16 3 -24 6 -10 3 -18 -4 -24 -22z"/>
<path d="M4018 6605 c-31 -8 -66 -30 -99 -59 -28 -25 -57 -45 -63 -44 -6 1
-23 -5 -37 -15 -15 -10 -43 -20 -64 -22 -20 -3 -50 -14 -66 -26 -35 -24 -94
-36 -103 -20 -4 6 4 25 18 42 31 37 34 54 7 39 -11 -5 -29 -10 -41 -10 -21 0
-93 -41 -105 -60 -4 -6 -14 -8 -23 -6 -11 4 -24 -4 -37 -23 -10 -16 -23 -27
-28 -24 -4 2 -28 -11 -52 -31 -24 -20 -52 -36 -64 -36 -11 0 -23 -5 -27 -11
-4 -8 -9 -7 -15 2 -6 11 -9 10 -15 -4 -3 -9 -12 -17 -19 -17 -7 0 -15 -6 -18
-14 -3 -8 -17 -12 -34 -10 -15 1 -38 -4 -51 -12 -12 -8 -27 -12 -33 -8 -6 3
-13 -3 -16 -15 -4 -15 -18 -23 -62 -32 -31 -6 -67 -16 -79 -22 -27 -13 -82
-66 -82 -80 0 -24 -33 -74 -48 -73 -9 0 -18 -8 -20 -19 -7 -35 -31 -52 -84
-59 -62 -9 -115 -30 -146 -59 -41 -37 -78 -127 -81 -192 -2 -46 -8 -65 -27
-88 -56 -66 -82 -151 -64 -204 10 -27 7 -40 -20 -99 -18 -38 -33 -78 -35 -89
-2 -11 -9 -53 -16 -93 -9 -52 -10 -75 -3 -80 20 -13 44 -71 44 -106 0 -19 5
-36 10 -38 6 -2 10 -12 10 -23 -3 -67 3 -119 16 -151 10 -24 14 -60 12 -107
-3 -64 -1 -70 19 -78 14 -5 27 -25 38 -60 10 -29 26 -60 37 -69 11 -9 22 -37
28 -73 5 -33 12 -69 16 -80 7 -22 7 -22 15 -2 6 15 8 10 7 -20 -1 -55 8 -71
54 -99 22 -13 38 -27 36 -32 -2 -5 14 -10 36 -12 32 -3 40 -8 49 -33 6 -16 19
-32 29 -35 21 -6 24 -44 4 -44 -8 0 -17 -6 -20 -12 -3 -9 -8 -8 -16 5 -6 9
-15 17 -19 17 -13 0 -21 -28 -15 -45 7 -17 30 -20 36 -5 2 5 22 11 45 12 24 2
43 8 44 13 3 24 -3 61 -12 69 -5 6 -9 20 -9 32 0 12 -7 38 -15 57 -8 20 -12
43 -9 51 8 20 -3 20 -23 1 -9 -9 -13 -26 -10 -40 3 -19 0 -25 -14 -25 -15 0
-19 8 -19 38 0 55 18 112 34 106 10 -4 11 5 5 43 -19 116 -1 263 43 346 21 39
23 40 26 17 6 -45 13 -58 21 -35 4 10 3 32 -3 48 -10 27 -8 31 32 65 23 20 42
43 42 50 0 6 9 12 20 12 13 0 20 7 20 20 0 11 -4 20 -10 20 -19 0 -10 28 25
71 32 40 49 99 25 84 -5 -3 -10 -1 -10 4 0 10 6 12 28 10 4 0 12 12 18 28 7
16 20 28 30 28 16 0 19 10 20 75 1 100 12 153 30 146 8 -3 14 1 14 8 0 8 20
34 43 58 24 24 52 66 63 93 33 87 115 145 204 145 14 0 31 5 38 12 36 36 235
22 321 -22 25 -12 54 -20 68 -17 13 2 21 2 18 -1 -11 -11 56 -41 90 -40 20 1
41 -4 47 -10 7 -7 27 -12 45 -12 18 0 33 -5 33 -11 0 -6 6 -9 13 -6 6 2 19 1
28 -4 12 -6 18 -3 22 10 5 20 52 32 83 20 11 -3 22 -2 25 3 7 11 116 -18 139
-37 21 -16 188 -97 194 -93 2 1 14 -6 26 -17 17 -15 25 -17 39 -8 27 17 97 -5
110 -34 6 -13 15 -23 21 -23 5 0 10 -10 10 -22 0 -19 2 -20 10 -8 8 13 10 12
10 -2 0 -10 0 -20 -1 -24 0 -3 6 -15 14 -27 19 -29 29 -85 16 -92 -5 -4 -2
-17 9 -33 11 -15 17 -33 15 -40 -3 -7 0 -19 6 -26 6 -7 19 -46 29 -85 14 -54
17 -85 11 -129 -5 -31 -9 -96 -10 -143 -1 -91 12 -128 52 -150 11 -5 19 -16
19 -24 0 -7 18 -27 39 -45 30 -23 46 -29 65 -24 14 3 26 10 26 14 0 4 20 13
45 20 36 10 48 10 60 0 12 -10 25 -7 67 15 73 37 100 81 101 163 0 34 4 58 7
52 4 -7 13 -4 23 7 13 15 14 25 5 58 -10 40 -12 62 -8 100 1 11 0 42 -4 70 -3
29 -1 54 6 62 7 9 8 39 4 86 -8 87 -44 283 -56 306 -4 9 -22 70 -40 136 -17
66 -34 122 -38 125 -4 3 -7 39 -7 81 0 70 -3 80 -36 130 -20 30 -39 66 -42 80
-11 45 -93 145 -129 159 -80 29 -100 42 -110 68 -6 16 -25 37 -42 48 -17 10
-46 29 -66 41 -19 12 -43 22 -52 23 -10 0 -18 6 -18 14 0 8 -7 16 -14 19 -9 4
-13 1 -10 -6 7 -19 -121 -14 -140 6 -9 9 -16 20 -16 26 0 5 -11 22 -25 37 -14
15 -25 34 -25 43 -1 23 -82 82 -176 129 -43 22 -101 52 -128 66 -55 29 -111
32 -188 11z m-464 -475 c-10 -16 -20 -27 -22 -25 -5 5 26 55 34 55 3 0 -3 -13
-12 -30z m84 -30 c-7 -11 -15 -15 -17 -9 -2 6 3 15 10 20 20 12 21 11 7 -11z
m-144 -79 c-9 -18 -18 -30 -21 -28 -2 3 3 19 12 37 9 18 18 30 21 28 2 -3 -3
-19 -12 -37z m96 -111 c-6 -11 -12 -20 -14 -20 -2 0 -2 9 1 20 3 11 9 20 15
20 5 0 4 -9 -2 -20z m-1260 -774 c-6 -6 -10 -19 -10 -30 0 -10 -3 -17 -6 -14
-3 3 -2 23 2 43 4 25 9 33 15 24 4 -8 4 -18 -1 -23z m397 -1058 c-3 -8 -6 -5
-6 6 -1 11 2 17 5 13 3 -3 4 -12 1 -19z"/>
<path d="M3173 4827 c-2 -4 -14 -5 -25 -1 -13 4 -27 -1 -41 -14 -25 -23 -74
-41 -63 -23 10 15 -6 14 -29 -3 -10 -7 -26 -11 -36 -9 -18 5 -45 -31 -41 -54
1 -6 -8 -14 -20 -16 l-23 -4 23 -2 c31 -2 27 -21 -8 -34 -28 -11 -29 -12 -25
-71 2 -33 -1 -68 -6 -77 -7 -14 -4 -19 11 -24 11 -3 20 -9 20 -13 0 -4 33 -7
73 -6 81 1 117 -8 117 -31 0 -8 4 -15 9 -15 5 0 12 -8 15 -18 8 -26 53 -49
111 -58 28 -4 68 -18 90 -32 25 -16 40 -21 43 -13 2 6 15 11 28 11 13 0 24 5
24 10 0 6 5 10 10 10 6 0 19 9 30 20 12 12 33 20 53 20 24 0 41 8 62 30 34 36
45 38 46 8 1 -18 2 -19 6 -5 2 9 9 14 15 11 7 -5 7 -1 0 12 -8 14 -6 24 8 44
10 14 18 27 18 30 2 15 17 52 43 106 25 49 29 68 24 97 -8 39 -14 44 -32 26
-9 -9 -19 -7 -39 7 -15 10 -36 24 -48 31 -11 7 -25 18 -31 25 -13 17 -55 23
-55 8 0 -6 -4 -9 -10 -5 -5 3 -38 8 -72 11 -35 3 -83 7 -108 11 -74 9 -161 9
-167 0z"/>
<path d="M3979 4770 c-27 -26 -41 -69 -19 -55 6 3 10 1 10 -6 0 -7 3 -9 7 -6
3 4 12 2 20 -4 9 -9 13 -8 13 0 0 17 47 13 54 -4 3 -9 18 -15 35 -15 16 0 33
-4 36 -10 5 -8 208 -8 409 -1 14 1 16 4 7 14 -6 8 -7 17 -3 21 4 4 -5 5 -21 1
-22 -6 -32 -2 -54 22 -27 28 -33 30 -116 32 -49 1 -117 8 -152 16 -35 8 -93
17 -130 20 -64 4 -69 3 -96 -25z m471 -44 c0 -11 -19 -15 -25 -6 -3 5 1 10 9
10 9 0 16 -2 16 -4z"/>
<path d="M3950 4690 c0 -5 5 -10 11 -10 5 0 7 5 4 10 -3 6 -8 10 -11 10 -2 0
-4 -4 -4 -10z"/>
<path d="M4160 4640 c0 -5 -12 -13 -27 -16 -16 -4 -33 -10 -38 -15 -6 -4 -17
-4 -24 1 -23 14 -42 1 -31 -21 8 -14 6 -25 -5 -42 -8 -13 -12 -26 -9 -30 3 -3
-1 -16 -10 -29 -18 -25 -22 -78 -6 -78 18 0 11 -20 -7 -20 -13 -1 -4 -13 28
-43 55 -50 128 -73 178 -56 31 11 47 34 30 45 -14 9 9 34 32 34 21 0 26 16 7
23 -8 4 -6 6 5 7 21 3 18 2 92 25 33 9 64 24 68 31 4 8 19 14 32 14 14 0 25 4
25 10 0 16 -91 79 -132 92 -26 7 -37 16 -36 27 2 12 -10 18 -57 24 -33 5 -68
13 -77 18 -23 12 -38 12 -38 -1z m231 -117 c16 -10 29 -23 29 -30 0 -15 -86
-60 -96 -51 -3 3 2 20 10 37 9 16 16 37 16 46 0 19 5 19 41 -2z m-85 -30 c-11
-11 -19 6 -11 24 8 17 8 17 12 0 3 -10 2 -21 -1 -24z"/>
<path d="M4248 4643 c6 -2 18 -2 25 0 6 3 1 5 -13 5 -14 0 -19 -2 -12 -5z"/>
<path d="M4368 4593 c7 -3 16 -2 19 1 4 3 -2 6 -13 5 -11 0 -14 -3 -6 -6z"/>
<path d="M4408 4583 c7 -3 16 -2 19 1 4 3 -2 6 -13 5 -11 0 -14 -3 -6 -6z"/>
<path d="M4470 4562 c0 -12 19 -26 26 -19 2 2 -2 10 -11 17 -9 8 -15 8 -15 2z"/>
<path d="M5115 4370 c-34 -37 -30 -219 4 -185 13 13 51 131 51 159 0 21 -17
46 -30 46 -4 0 -15 -9 -25 -20z"/>
<path d="M4930 4219 c-12 -22 -6 -63 16 -108 12 -23 12 -34 3 -55 -7 -14 -19
-26 -27 -26 -18 0 -82 -47 -82 -61 0 -16 25 -10 43 11 14 17 25 19 70 14 50
-6 55 -5 75 21 28 36 28 57 -3 104 -16 23 -23 45 -19 55 7 19 -30 66 -52 66
-7 0 -18 -9 -24 -21z"/>
<path d="M3503 4100 c-3 -11 -9 -17 -14 -14 -5 3 -12 -1 -15 -10 -3 -8 -12
-12 -21 -9 -11 4 -14 0 -12 -18 1 -13 -1 -31 -4 -39 -12 -32 -15 -60 -7 -65 5
-3 11 -1 15 5 3 5 14 10 24 10 11 0 23 15 35 43 9 23 21 50 27 59 5 10 9 27 9
38 0 26 -30 26 -37 0z"/>
<path d="M2483 4103 c-7 -2 -13 -11 -13 -19 0 -9 4 -13 9 -9 5 3 12 1 16 -5 9
-15 25 -2 25 21 0 18 -12 23 -37 12z"/>
<path d="M2575 4010 c3 -5 11 -10 16 -10 6 0 7 5 4 10 -3 6 -11 10 -16 10 -6
0 -7 -4 -4 -10z"/>
<path d="M3563 3973 c-20 -24 -42 -43 -49 -43 -18 0 -18 -20 0 -45 7 -11 19
-37 25 -58 9 -27 24 -44 52 -60 36 -20 39 -25 34 -53 -6 -35 12 -58 39 -48 22
9 20 29 -6 54 -12 11 -17 20 -10 20 6 0 13 -4 16 -9 3 -5 20 -8 38 -7 28 1 33
6 36 29 5 45 26 25 35 -34 5 -30 10 -63 12 -74 5 -23 47 -45 73 -38 24 6 29
65 7 83 -9 7 -25 34 -37 59 -11 25 -24 48 -28 51 -27 19 -35 90 -11 90 5 0 6
12 3 26 -3 18 -15 31 -38 40 -18 8 -49 25 -69 39 -51 34 -80 29 -122 -22z"/>
<path d="M3872 3924 c-12 -8 -22 -19 -22 -24 0 -18 33 -41 55 -38 12 1 39 -6
59 -17 33 -18 39 -18 63 -5 28 16 46 47 22 38 -51 -19 -59 -19 -59 0 0 26 -41
62 -71 62 -13 0 -35 -7 -47 -16z"/>
<path d="M2587 3863 c-11 -17 4 -73 20 -73 7 0 17 -8 20 -17 7 -19 34 -45 103
-102 23 -18 39 -35 36 -38 -6 -6 26 -43 38 -43 8 0 1 196 -10 252 -5 27 -6 27
-32 10 -15 -9 -30 -20 -33 -25 -3 -5 -10 -9 -15 -10 -5 -1 -8 -8 -8 -14 2 -16
2 -16 -33 -1 -15 7 -40 26 -54 42 -16 18 -28 25 -32 19z"/>
<path d="M4776 3653 c-8 -100 -14 -208 -9 -165 4 34 17 44 56 46 23 1 24 3 26
60 1 29 4 33 21 29 15 -4 20 0 20 13 0 37 -13 64 -29 64 -10 0 -26 7 -37 15
-34 26 -41 18 -48 -62z"/>
<path d="M2850 3586 c0 -9 7 -16 16 -16 9 0 14 5 12 12 -6 18 -28 21 -28 4z"/>
<path d="M3290 3565 c-14 -16 -10 -18 14 -9 9 3 16 10 16 15 0 14 -16 11 -30
-6z"/>
<path d="M3056 3563 c-11 -11 -6 -23 9 -23 8 0 15 4 15 9 0 13 -16 22 -24 14z"/>
<path d="M2830 3521 c0 -5 5 -13 10 -16 6 -3 10 -2 10 4 0 5 -4 13 -10 16 -5
3 -10 2 -10 -4z"/>
<path d="M3040 3495 c0 -14 6 -25 14 -25 9 0 12 8 8 25 -2 14 -8 25 -13 25 -5
0 -9 -11 -9 -25z"/>
<path d="M3700 3010 c0 -5 5 -10 11 -10 5 0 7 5 4 10 -3 6 -8 10 -11 10 -2 0
-4 -4 -4 -10z"/>
<path d="M4218 2862 c-19 -4 -24 -17 -9 -26 5 -3 14 1 21 9 15 18 12 23 -12
17z"/>
<path d="M2840 2445 c0 -8 4 -15 10 -15 5 0 7 7 4 15 -4 8 -8 15 -10 15 -2 0
-4 -7 -4 -15z"/>
<path d="M3837 2309 c-4 -16 -3 -18 9 -8 7 6 11 15 8 20 -8 13 -11 11 -17 -12z"/>
<path d="M5006 1075 c15 -13 30 -22 33 -20 6 6 -39 45 -52 45 -6 0 3 -11 19
-25z"/>
<path d="M5055 1040 c3 -5 8 -10 11 -10 2 0 4 5 4 10 0 6 -5 10 -11 10 -5 0
-7 -4 -4 -10z"/>
<path d="M5140 950 c6 -11 15 -20 20 -20 6 0 5 9 -2 20 -7 11 -16 20 -21 20
-4 0 -3 -9 3 -20z"/>
<path d="M5215 880 c3 -5 8 -10 11 -10 2 0 4 5 4 10 0 6 -5 10 -11 10 -5 0 -7
-4 -4 -10z"/>
</g>
</svg>
